<svg width="16" height="16" viewBox="0 0 16 16" fill="none" xmlns="http://www.w3.org/2000/svg">
<rect x="1.33301" y="2.66669" width="13.3333" height="10.6667" rx="2" fill="#EF3E36"/>
<path fill-rule="evenodd" clip-rule="evenodd" d="M2.66699 3.33333C2.30185 3.33333 2.00033 3.63486 2.00033 4V12C2.00033 12.3651 2.30185 12.6667 2.66699 12.6667H13.3337C13.6988 12.6667 14.0003 12.3651 14.0003 12V4C14.0003 3.63486 13.6988 3.33333 13.3337 3.33333H2.66699ZM0.666992 4C0.666992 2.89848 1.56547 2 2.66699 2H13.3337C14.4352 2 15.3337 2.89848 15.3337 4V12C15.3337 13.1015 14.4352 14 13.3337 14H2.66699C1.56547 14 0.666992 13.1015 0.666992 12V4Z" fill="white"/>
<path fill-rule="evenodd" clip-rule="evenodd" d="M0.787561 3.61767C0.998704 3.31603 1.41439 3.24268 1.71602 3.45382L8.00038 7.85287L14.2847 3.45382C14.5864 3.24268 15.0021 3.31603 15.2132 3.61767C15.4243 3.9193 15.351 4.33499 15.0494 4.54613L8.38269 9.2128C8.15314 9.37348 7.84762 9.37348 7.61807 9.2128L0.951408 4.54613C0.649775 4.33499 0.576418 3.9193 0.787561 3.61767Z" fill="white"/>
</svg>
