<svg width="16" height="16" viewBox="0 0 16 16" fill="none" xmlns="http://www.w3.org/2000/svg">
<rect x="1.33301" y="2" width="13.3333" height="12.6667" rx="4" fill="white"/>
<path d="M7.9577 4.71252C5.98239 4.71252 4.3457 6.32099 4.3457 8.32452C4.3457 10.328 5.95417 11.9365 7.9577 11.9365C9.96122 11.9365 11.5697 10.2998 11.5697 8.32452C11.5697 6.34921 9.933 4.71252 7.9577 4.71252ZM7.9577 10.6384C6.68786 10.6384 5.64376 9.59436 5.64376 8.32452C5.64376 7.05468 6.68786 6.01058 7.9577 6.01058C9.22754 6.01058 10.2716 7.05468 10.2716 8.32452C10.2716 9.59436 9.22754 10.6384 7.9577 10.6384Z" fill="#EF3E36"/>
<path d="M11.7099 5.44619C12.1619 5.44619 12.5283 5.07981 12.5283 4.62785C12.5283 4.17589 12.1619 3.80951 11.7099 3.80951C11.258 3.80951 10.8916 4.17589 10.8916 4.62785C10.8916 5.07981 11.258 5.44619 11.7099 5.44619Z" fill="#EF3E36"/>
</svg>
