<svg width="16" height="16" viewBox="0 0 16 16" fill="none" xmlns="http://www.w3.org/2000/svg">
<path d="M15.3748 3.42188C14.831 3.6625 14.2498 3.825 13.6373 3.9C14.2623 3.525 14.7436 2.93125 14.9686 2.225C14.3842 2.57187 13.7373 2.825 13.0467 2.95937C12.4936 2.36875 11.7061 2 10.8373 2C9.16543 2 7.8123 3.35625 7.8123 5.02812C7.8123 5.26562 7.8373 5.49688 7.89043 5.71875C5.3748 5.59375 3.14355 4.3875 1.65293 2.55312C1.39355 3 1.24355 3.52187 1.24355 4.075C1.24355 5.125 1.77793 6.05313 2.59043 6.59688C2.09355 6.58438 1.6248 6.44688 1.21855 6.21875C1.21855 6.23125 1.21855 6.24375 1.21855 6.25625C1.21855 7.725 2.2623 8.94688 3.64668 9.225C3.39355 9.29375 3.1248 9.33125 2.8498 9.33125C2.65605 9.33125 2.46543 9.3125 2.28105 9.275C2.66543 10.4781 3.78418 11.3531 5.10918 11.3781C4.0748 12.1906 2.76855 12.675 1.3498 12.675C1.10605 12.675 0.86543 12.6594 0.62793 12.6313C1.96543 13.5 3.55605 14 5.2623 14C10.8311 14 13.8748 9.38438 13.8748 5.38125C13.8748 5.25 13.8717 5.11875 13.8654 4.99062C14.4561 4.5625 14.9686 4.02813 15.3748 3.42188Z" fill="white"/>
</svg>
